<?xml version="1.0" standalone="no"?>
<!DOCTYPE svg PUBLIC "-//W3C//DTD SVG 1.1//EN" "http://www.w3.org/Graphics/SVG/1.1/DTD/svg11.dtd">
<svg width="100%" height="100%" viewBox="0 0 916 143" version="1.1" xmlns="http://www.w3.org/2000/svg" xmlns:xlink="http://www.w3.org/1999/xlink" xml:space="preserve" style="fill-rule:evenodd;clip-rule:evenodd;stroke-linejoin:round;stroke-miterlimit:1.41421;">
    <g transform="matrix(1,0,0,1,-178.297,-219.541)">
        <g transform="matrix(16.7967,0,0,16.7967,-3873.06,-2331.67)">
            <path d="M249.652,157.488C249.652,157.837 249.608,158.151 249.519,158.429C249.431,158.708 249.314,158.953 249.168,159.164C249.022,159.375 248.853,159.554 248.66,159.703C248.467,159.851 248.265,159.972 248.055,160.066C247.844,160.16 247.63,160.229 247.414,160.273C247.198,160.317 246.993,160.34 246.801,160.34L241.301,160.34L241.301,158.308L246.785,158.308C247.061,158.308 247.269,158.238 247.41,158.097C247.551,157.957 247.621,157.754 247.621,157.488C247.595,156.946 247.321,156.675 246.801,156.675L243.652,156.675C243.204,156.675 242.824,156.597 242.512,156.441C242.199,156.285 241.945,156.09 241.75,155.855C241.555,155.621 241.414,155.368 241.328,155.097C241.242,154.826 241.199,154.574 241.199,154.34C241.199,153.886 241.28,153.505 241.441,153.195C241.603,152.885 241.806,152.634 242.051,152.441C242.295,152.248 242.561,152.109 242.847,152.023C243.134,151.937 243.402,151.894 243.652,151.894L253.104,151.894L253.104,153.925L243.668,153.925C243.564,153.925 243.482,153.937 243.422,153.961C243.362,153.984 243.318,154.015 243.289,154.054C243.26,154.093 243.243,154.135 243.238,154.179C243.233,154.224 243.23,154.267 243.23,154.308C243.236,154.392 243.251,154.457 243.277,154.504C243.303,154.55 243.336,154.584 243.375,154.605C243.414,154.626 243.458,154.638 243.508,154.64C243.557,154.643 243.605,154.644 243.652,154.644L246.801,154.644C247.321,154.644 247.764,154.738 248.129,154.925C248.493,155.113 248.788,155.349 249.012,155.632C249.236,155.916 249.398,156.225 249.5,156.558C249.601,156.892 249.652,157.201 249.652,157.488Z" style="fill:rgb(238,232,213);fill-rule:nonzero;"/>
        </g>
        <g transform="matrix(16.7967,0,0,16.7967,-3873.06,-2331.67)">
            <path d="M264.98,151.894C264.657,152.618 264.308,153.33 263.933,154.031C263.558,154.731 263.166,155.394 262.758,156.019C262.349,156.644 261.931,157.221 261.504,157.75C261.077,158.278 260.653,158.734 260.234,159.117C259.815,159.5 259.406,159.799 259.008,160.015C258.609,160.231 258.233,160.34 257.879,160.34C257.733,160.34 257.597,160.313 257.472,160.261C257.347,160.209 257.238,160.138 257.144,160.047C257.051,159.955 256.978,159.847 256.926,159.722C256.874,159.597 256.847,159.462 256.847,159.316L256.847,155.527L252.816,160.035C252.712,160.139 252.599,160.216 252.476,160.265C252.354,160.315 252.228,160.34 252.097,160.34C251.957,160.34 251.825,160.313 251.703,160.261C251.581,160.209 251.472,160.138 251.379,160.047C251.285,159.955 251.211,159.847 251.156,159.722C251.101,159.597 251.074,159.462 251.074,159.316L251.074,151.894L253.105,151.894L253.105,156.707L257.152,152.183C257.298,152.037 257.471,151.945 257.672,151.906C257.872,151.867 258.069,151.889 258.262,151.972C258.454,152.05 258.607,152.174 258.719,152.343C258.831,152.513 258.887,152.699 258.887,152.902L258.887,157.73C259.324,157.308 259.72,156.863 260.074,156.394C260.428,155.925 260.758,155.442 261.062,154.945C261.367,154.448 261.653,153.942 261.922,153.429C262.19,152.916 262.452,152.405 262.707,151.894L264.98,151.894Z" style="fill:rgb(238,232,213);fill-rule:nonzero;"/>
        </g>
        <g transform="matrix(16.7967,0,0,16.7967,-3873.06,-2331.67)">
            <path d="M274.058,157.543C274.058,157.824 274.009,158.127 273.91,158.453C273.811,158.778 273.651,159.08 273.43,159.359C273.208,159.638 272.919,159.871 272.562,160.058C272.206,160.246 271.772,160.34 271.262,160.34L267.597,160.34C267.316,160.34 267.013,160.29 266.687,160.191C266.362,160.092 266.06,159.932 265.781,159.711C265.502,159.489 265.269,159.2 265.082,158.843C264.894,158.487 264.801,158.053 264.801,157.543C264.801,157.261 264.85,156.957 264.949,156.629C265.048,156.3 265.208,155.997 265.43,155.718C265.651,155.44 265.94,155.207 266.297,155.019C266.653,154.832 267.087,154.738 267.597,154.738L271.262,154.738L271.262,156.675L267.597,156.675C267.321,156.675 267.108,156.76 266.957,156.929C266.806,157.099 266.73,157.308 266.73,157.558C266.73,157.824 266.818,158.031 266.992,158.179C267.166,158.328 267.374,158.402 267.613,158.402L271.262,158.402C271.538,158.402 271.751,158.319 271.902,158.152C272.053,157.985 272.129,157.777 272.129,157.527L272.129,154.691C272.129,154.425 272.047,154.215 271.883,154.058C271.719,153.902 271.512,153.824 271.262,153.824L262.711,153.824L262.711,151.894L271.262,151.894C271.543,151.894 271.846,151.944 272.172,152.043C272.497,152.142 272.799,152.302 273.078,152.523C273.357,152.744 273.59,153.034 273.777,153.39C273.965,153.747 274.058,154.181 274.058,154.691L274.058,157.543Z" style="fill:rgb(238,232,213);fill-rule:nonzero;"/>
        </g>
        <g transform="matrix(16.7967,0,0,16.7967,-3873.06,-2331.67)">
            <path d="M285.871,151.894C285.642,152.608 285.374,153.311 285.066,154.004C284.759,154.696 284.406,155.356 284.008,155.984C283.609,156.612 283.164,157.192 282.672,157.726C282.18,158.26 281.635,158.721 281.039,159.109C280.443,159.497 279.794,159.802 279.094,160.023C278.393,160.244 277.634,160.355 276.816,160.355C276.676,160.355 276.543,160.329 276.418,160.277C276.293,160.225 276.183,160.153 276.09,160.062C275.996,159.971 275.923,159.864 275.871,159.742C275.819,159.619 275.793,159.488 275.793,159.347L275.793,151.894L277.824,151.894L277.824,158.246C278.319,158.246 278.794,158.139 279.25,157.925C279.706,157.712 280.137,157.429 280.543,157.078C280.949,156.726 281.325,156.326 281.672,155.879C282.018,155.431 282.327,154.971 282.597,154.5C282.868,154.028 283.099,153.566 283.289,153.113C283.479,152.66 283.621,152.254 283.715,151.894L285.871,151.894Z" style="fill:rgb(238,232,213);fill-rule:nonzero;"/>
        </g>
        <g transform="matrix(16.7967,0,0,16.7967,-3873.06,-2331.67)">
            <path d="M295.683,154.691C295.683,154.972 295.634,155.276 295.535,155.601C295.436,155.927 295.276,156.229 295.055,156.507C294.833,156.786 294.544,157.019 294.187,157.207C293.831,157.394 293.397,157.488 292.887,157.488L289.222,157.488L289.222,155.558L292.887,155.558C293.163,155.558 293.376,155.474 293.527,155.304C293.678,155.135 293.754,154.925 293.754,154.675C293.754,154.41 293.669,154.201 293.5,154.05C293.331,153.899 293.126,153.824 292.887,153.824L289.222,153.824C288.946,153.824 288.733,153.909 288.582,154.078C288.431,154.247 288.355,154.457 288.355,154.707L288.355,157.543C288.355,157.813 288.44,158.024 288.609,158.175C288.778,158.326 288.988,158.402 289.238,158.402L292.887,158.402L292.887,160.34L289.222,160.34C288.941,160.34 288.638,160.29 288.312,160.191C287.987,160.092 287.685,159.932 287.406,159.711C287.127,159.489 286.894,159.2 286.707,158.843C286.519,158.487 286.426,158.053 286.426,157.543L286.426,154.691C286.426,154.41 286.475,154.106 286.574,153.781C286.673,153.455 286.833,153.153 287.055,152.875C287.276,152.596 287.565,152.363 287.922,152.175C288.278,151.988 288.712,151.894 289.222,151.894L292.887,151.894C293.168,151.894 293.471,151.944 293.797,152.043C294.122,152.142 294.424,152.302 294.703,152.523C294.982,152.744 295.215,153.034 295.402,153.39C295.59,153.747 295.683,154.181 295.683,154.691Z" style="fill:rgb(238,232,213);fill-rule:nonzero;"/>
        </g>
    </g>
</svg>
