<?xml version="1.0" standalone="no"?>
<!DOCTYPE svg PUBLIC "-//W3C//DTD SVG 20010904//EN"
 "http://www.w3.org/TR/2001/REC-SVG-20010904/DTD/svg10.dtd">
<svg version="1.0" xmlns="http://www.w3.org/2000/svg"
 width="768.000000pt" height="768.000000pt" viewBox="0 0 768.000000 768.000000"
 preserveAspectRatio="xMidYMid meet">
<metadata>
Created by potrace 1.11, written by Peter Selinger 2001-2013
</metadata>
<g transform="translate(0.000000,768.000000) scale(0.100000,-0.100000)"
fill="#000000" stroke="none">
<path d="M2590 6689 c-451 -25 -840 -190 -1131 -479 -80 -79 -203 -232 -217
-269 -3 -9 -20 -38 -38 -66 -58 -91 -109 -217 -145 -355 -12 -49 -13 -55 -24
-120 -4 -25 -9 -54 -11 -65 -16 -81 -22 -295 -11 -421 6 -72 12 -110 32 -204
70 -341 245 -639 510 -869 106 -92 340 -231 467 -277 38 -14 127 -40 168 -49
8 -2 35 -8 60 -13 25 -6 69 -13 99 -17 30 -4 63 -9 75 -12 12 -3 550 -7 1196
-8 646 -2 1209 -5 1250 -9 279 -20 438 -189 467 -491 4 -44 7 -82 6 -85 -1 -3
-4 -32 -7 -65 -11 -126 -74 -260 -154 -330 -68 -60 -203 -112 -310 -120 -26
-2 -1133 -4 -2459 -4 l-2413 -1 0 -685 0 -685 23 -1 c112 -3 4902 2 4932 5
129 14 309 47 385 71 180 57 235 78 342 130 324 157 564 365 743 645 100 155
211 427 241 590 2 14 9 48 14 75 30 152 42 409 27 577 -4 43 -9 83 -12 90 -2
7 -6 31 -9 53 -16 123 -64 300 -120 445 -38 96 -136 292 -162 321 -8 8 -14 19
-14 23 0 4 -32 51 -71 104 -165 224 -417 426 -694 556 -127 60 -351 122 -510
141 -27 3 -70 8 -95 11 -25 4 -594 7 -1265 8 -1340 3 -1260 -1 -1319 62 -42
46 -59 114 -53 211 4 75 8 89 34 121 16 20 43 44 59 53 27 15 123 41 142 38 4
-1 1144 -1 2535 0 l2527 1 0 685 c0 645 -1 685 -17 686 -129 4 -4990 2 -5073
-2z"/>
</g>
</svg>
