<?xml version="1.0" encoding="UTF-8" standalone="no"?>
<!DOCTYPE svg PUBLIC "-//W3C//DTD SVG 1.1//EN" "http://www.w3.org/Graphics/SVG/1.1/DTD/svg11.dtd">
<svg xmlns="http://www.w3.org/2000/svg" xmlns:xl="http://www.w3.org/1999/xlink" version="1.1" viewBox="124 7 76 22" width="76pt" height="22pt" xmlns:dc="http://purl.org/dc/elements/1.1/"><metadata> Produced by OmniGraffle 6.5 <dc:date>2016-06-17 08:44:40 +0000</dc:date></metadata><defs><marker orient="auto" overflow="visible" markerUnits="strokeWidth" id="FilledArrow_Marker" viewBox="-1 -4 10 8" markerWidth="10" markerHeight="8" color="#eee8d5"><g><path d="M 8 0 L 0 -3 L 0 3 Z" fill="currentColor" stroke="currentColor" stroke-width="1"/></g></marker></defs><g stroke="none" stroke-opacity="1" stroke-dasharray="none" fill="none" fill-opacity="1"><title>Canvas 11</title><g><title>Layer 1</title><path d="M 167 9 L 157 9 C 154.79086 9 153 10.790861 153 13 L 153 23 C 153 25.209139 154.79086 27 157 27 L 167 27 C 169.20914 27 171 25.209139 171 23 L 171 13 C 171 10.790861 169.20914 9 167 9 Z" fill="#3d638a"/><path d="M 167 9 L 157 9 C 154.79086 9 153 10.790861 153 13 L 153 23 C 153 25.209139 154.79086 27 157 27 L 167 27 C 169.20914 27 171 25.209139 171 23 L 171 13 C 171 10.790861 169.20914 9 167 9 Z" stroke="#eee8d5" stroke-linecap="round" stroke-linejoin="round" stroke-width="1"/><line x1="126" y1="18" x2="143.1" y2="18" marker-end="url(#FilledArrow_Marker)" stroke="#eee8d5" stroke-linecap="round" stroke-linejoin="round" stroke-width="1"/><line x1="171" y1="18" x2="188.1" y2="18" marker-end="url(#FilledArrow_Marker)" stroke="#eee8d5" stroke-linecap="round" stroke-linejoin="round" stroke-width="1" stroke-dasharray="1,4"/></g></g></svg>
