<?xml version="1.0" encoding="UTF-8" standalone="no"?>
<!DOCTYPE svg PUBLIC "-//W3C//DTD SVG 1.1//EN" "http://www.w3.org/Graphics/SVG/1.1/DTD/svg11.dtd">
<svg xmlns="http://www.w3.org/2000/svg" xmlns:xl="http://www.w3.org/1999/xlink" version="1.1" viewBox="25 79 76 31" width="76pt" height="31pt" xmlns:dc="http://purl.org/dc/elements/1.1/"><metadata> Produced by OmniGraffle 6.5 <dc:date>2016-06-17 08:44:40 +0000</dc:date></metadata><defs><marker orient="auto" overflow="visible" markerUnits="strokeWidth" id="FilledArrow_Marker" viewBox="-1 -4 10 8" markerWidth="10" markerHeight="8" color="#eee8d5"><g><path d="M 8 0 L 0 -3 L 0 3 Z" fill="currentColor" stroke="currentColor" stroke-width="1"/></g></marker></defs><g stroke="none" stroke-opacity="1" stroke-dasharray="none" fill="none" fill-opacity="1"><title>Canvas 11</title><g><title>Layer 1</title><path d="M 68 81 L 58 81 C 55.79086 81 54 82.79086 54 85 L 54 104 C 54 106.20914 55.79086 108 58 108 L 68 108 C 70.20914 108 72 106.20914 72 104 L 72 85 C 72 82.79086 70.20914 81 68 81 Z" fill="#3d638a"/><path d="M 68 81 L 58 81 C 55.79086 81 54 82.79086 54 85 L 54 104 C 54 106.20914 55.79086 108 58 108 L 68 108 C 70.20914 108 72 106.20914 72 104 L 72 85 C 72 82.79086 70.20914 81 68 81 Z" stroke="#eee8d5" stroke-linecap="round" stroke-linejoin="round" stroke-width="1"/><line x1="27" y1="94.5" x2="44.1" y2="94.5" marker-end="url(#FilledArrow_Marker)" stroke="#eee8d5" stroke-linecap="round" stroke-linejoin="round" stroke-width="1"/><line x1="27" y1="85.5" x2="44.1" y2="85.5" marker-end="url(#FilledArrow_Marker)" stroke="#eee8d5" stroke-linecap="round" stroke-linejoin="round" stroke-width="1"/><line x1="72" y1="94.5" x2="89.1" y2="94.5" marker-end="url(#FilledArrow_Marker)" stroke="#eee8d5" stroke-linecap="round" stroke-linejoin="round" stroke-width="1"/><line x1="27" y1="103.5" x2="44.1" y2="103.5" marker-end="url(#FilledArrow_Marker)" stroke="#eee8d5" stroke-linecap="round" stroke-linejoin="round" stroke-width="1"/></g></g></svg>
