<?xml version="1.0" encoding="UTF-8" standalone="no"?>
<!DOCTYPE svg PUBLIC "-//W3C//DTD SVG 1.1//EN" "http://www.w3.org/Graphics/SVG/1.1/DTD/svg11.dtd">
<svg xmlns="http://www.w3.org/2000/svg" xmlns:xl="http://www.w3.org/1999/xlink" version="1.1" viewBox="25 38 76 32" width="76pt" height="32pt" xmlns:dc="http://purl.org/dc/elements/1.1/"><metadata> Produced by OmniGraffle 6.5 <dc:date>2016-06-17 08:44:40 +0000</dc:date></metadata><defs><marker orient="auto" overflow="visible" markerUnits="strokeWidth" id="FilledArrow_Marker" viewBox="-1 -4 10 8" markerWidth="10" markerHeight="8" color="#eee8d5"><g><path d="M 8 0 L 0 -3 L 0 3 Z" fill="currentColor" stroke="currentColor" stroke-width="1"/></g></marker></defs><g stroke="none" stroke-opacity="1" stroke-dasharray="none" fill="none" fill-opacity="1"><title>Canvas 11</title><g><title>Layer 1</title><path d="M 68 40.5 L 58 40.5 C 55.79086 40.5 54 42.29086 54 44.5 L 54 63.5 C 54 65.70914 55.79086 67.5 58 67.5 L 68 67.5 C 70.20914 67.5 72 65.70914 72 63.5 L 72 44.5 C 72 42.29086 70.20914 40.5 68 40.5 Z" fill="#3d638a"/><path d="M 68 40.5 L 58 40.5 C 55.79086 40.5 54 42.29086 54 44.5 L 54 63.5 C 54 65.70914 55.79086 67.5 58 67.5 L 68 67.5 C 70.20914 67.5 72 65.70914 72 63.5 L 72 44.5 C 72 42.29086 70.20914 40.5 68 40.5 Z" stroke="#eee8d5" stroke-linecap="round" stroke-linejoin="round" stroke-width="1"/><line x1="27" y1="54" x2="44.1" y2="54" marker-end="url(#FilledArrow_Marker)" stroke="#eee8d5" stroke-linecap="round" stroke-linejoin="round" stroke-width="1"/><line x1="72" y1="45" x2="89.1" y2="45" marker-end="url(#FilledArrow_Marker)" stroke="#eee8d5" stroke-linecap="round" stroke-linejoin="round" stroke-width="1"/><line x1="72" y1="54" x2="89.1" y2="54" marker-end="url(#FilledArrow_Marker)" stroke="#eee8d5" stroke-linecap="round" stroke-linejoin="round" stroke-width="1"/><line x1="72" y1="63" x2="89.1" y2="63" marker-end="url(#FilledArrow_Marker)" stroke="#eee8d5" stroke-linecap="round" stroke-linejoin="round" stroke-width="1"/></g></g></svg>
